<?xml version="1.0" encoding="UTF-8" standalone="no"?>
<!-- Generator: Adobe Illustrator 18.1.1, SVG Export Plug-In . SVG Version: 6.00 Build 0)  -->

<svg
   xmlns:dc="http://purl.org/dc/elements/1.1/"
   xmlns:cc="http://creativecommons.org/ns#"
   xmlns:rdf="http://www.w3.org/1999/02/22-rdf-syntax-ns#"
   xmlns:svg="http://www.w3.org/2000/svg"
   xmlns="http://www.w3.org/2000/svg"
   xmlns:sodipodi="http://sodipodi.sourceforge.net/DTD/sodipodi-0.dtd"
   xmlns:inkscape="http://www.inkscape.org/namespaces/inkscape"
   version="1.1"
   id="logo"
   x="0px"
   y="0px"
   viewBox="0 0 411 35.000001"
   enable-background="new 0 0 612 792"
   xml:space="preserve"
   inkscape:version="0.91 r13725"
   sodipodi:docname="logo.svg"
   width="411"
   height="35"><metadata
     id="metadata41"><rdf:RDF><cc:Work
         rdf:about=""><dc:format>image/svg+xml</dc:format><dc:type
           rdf:resource="http://purl.org/dc/dcmitype/StillImage" /><dc:title></dc:title></cc:Work></rdf:RDF></metadata><defs
     id="defs39" /><sodipodi:namedview
     pagecolor="#ffffff"
     bordercolor="#666666"
     borderopacity="1"
     objecttolerance="10"
     gridtolerance="10"
     guidetolerance="10"
     inkscape:pageopacity="0"
     inkscape:pageshadow="2"
     inkscape:window-width="1701"
     inkscape:window-height="737"
     id="namedview37"
     showgrid="false"
     width="270px"
     fit-margin-top="0"
     fit-margin-left="0"
     fit-margin-right="0"
     fit-margin-bottom="0"
     inkscape:zoom="2.3838384"
     inkscape:cx="224.75039"
     inkscape:cy="-2.3987419"
     inkscape:window-x="2097"
     inkscape:window-y="202"
     inkscape:window-maximized="0"
     inkscape:current-layer="logo" /><g
     id="white"
     transform="matrix(0.25,0,0,0.25,-30.6,-80.949999)"><path
       d="m 238.5,435 c -2.4,-0.6 -5,-0.9 -7.6,-0.9 -4.5,0 -8.5,0.8 -11.5,2 -0.3,0.2 -0.6,0.5 -0.6,0.9 0,0.1 0,0.3 0.1,0.4 0.4,1 -0.2,2.1 -3.1,2.8 -4.3,0.9 -7,5.4 -8.6,6.9 -1.8,1.7 -7,2.8 -6.2,1.8 0.6,-0.8 2.9,-3.3 4.3,-6 1.3,-2.4 2.4,-3.1 3.9,-5.4 0.5,-0.7 2.2,-3.1 2.7,-5 0.6,-1.8 0.4,-4.2 0.6,-5.1 0.3,-1.4 1.6,-4.4 1.7,-6 0.1,-1 -4,1.4 -5.9,1.4 -1.9,0 -3.8,-1.1 -5.5,-1.2 -2.1,-0.1 -3.5,1.6 -5.4,1.3 -1.1,-0.2 -2,-1.1 -3.9,-1.2 -2.7,-0.1 -6,1.5 -12.3,1.3 -6.1,-0.2 -11.8,-7.8 -12.6,-9 -0.9,-1.4 -2,-1.4 -3.2,-0.3 -1.2,1.1 -2.7,0.2 -3.1,-0.5 -0.8,-1.4 -3,-5.5 -6.3,-6.4 -4.6,-1.2 -7,2.6 -6.6,5.5 0.3,3 2.3,3.9 3.2,5.5 0.9,1.6 1.4,2.6 3.1,3.4 1.2,0.5 1.7,1.3 1.3,2.2 -0.3,0.9 -1.6,1.1 -2.4,1.1 -1.8,0.1 -3,-0.4 -3.9,-1 -1,-0.7 -1.9,-1.6 -2.8,-3.2 -1.1,-1.7 -2.7,-2.5 -4.7,-2.5 -0.9,0 -1.8,0.2 -2.6,0.6 -3,1.6 -6.6,2.5 -10.5,2.5 l -4.4,0 c 8.4,25 32,42.9 59.8,42.9 22.2,0 41.8,-11.5 53,-28.8 z"
       id="path4"
       inkscape:connector-curvature="0"
       style="fill:#ffffff" /></g><g
     id="g6"
     transform="matrix(0.25,0,0,0.25,-30.6,-80.949999)"
     style="fill:#000000"><path
       d="m 248,431.6 0.6,0 0.9,1.4 0.6,0 -0.9,-1.4 c 0.5,-0.1 0.8,-0.3 0.8,-0.9 0,-0.6 -0.4,-0.9 -1.1,-0.9 l -1.2,0 0,3.3 0.5,0 0,-1.5 z m 0,-0.4 0,-1 0.7,0 c 0.3,0 0.7,0.1 0.7,0.5 0,0.5 -0.4,0.5 -0.8,0.5 l -0.6,0 z"
       id="path8"
       inkscape:connector-curvature="0"
       style="fill:#000000" /><path
       d="m 251.8,431.4 c 0,1.8 -1.4,3.2 -3.2,3.2 -1.8,0 -3.2,-1.4 -3.2,-3.2 0,-1.8 1.4,-3.2 3.2,-3.2 1.7,0 3.2,1.5 3.2,3.2 z m -3.2,-2.6 c -1.5,0 -2.6,1.2 -2.6,2.6 0,1.4 1.2,2.6 2.6,2.6 1.4,0 2.6,-1.2 2.6,-2.6 0,-1.4 -1.2,-2.6 -2.6,-2.6 z"
       id="path10"
       inkscape:connector-curvature="0"
       style="fill:#000000" /></g><g
     id="g12"
     transform="matrix(0.25,0,0,0.25,-30.6,-80.949999)"><path
       d="m 238.5,435 c -2.4,-0.6 -5,-0.9 -7.6,-0.9 -4.5,0 -8.5,0.8 -11.5,2 -0.3,0.2 -0.6,0.5 -0.6,0.9 0,0.1 0,0.3 0.1,0.4 0.4,1 -0.2,2.1 -3.1,2.8 -4.3,0.9 -7,5.4 -8.6,6.9 -1.8,1.7 -7,2.8 -6.2,1.8 0.6,-0.8 2.9,-3.3 4.3,-6 1.3,-2.4 2.4,-3.1 3.9,-5.4 0.5,-0.7 2.2,-3.1 2.7,-5 0.6,-1.8 0.4,-4.2 0.6,-5.1 0.3,-1.4 1.6,-4.4 1.7,-6 0.1,-1 -4,1.4 -5.9,1.4 -1.9,0 -3.8,-1.1 -5.5,-1.2 -2.1,-0.1 -3.5,1.6 -5.4,1.3 -1.1,-0.2 -2,-1.1 -3.9,-1.2 -2.7,-0.1 -6,1.5 -12.3,1.3 -6.1,-0.2 -11.8,-7.8 -12.6,-9 -0.9,-1.4 -2,-1.4 -3.2,-0.3 -1.2,1.1 -2.7,0.2 -3.1,-0.5 -0.8,-1.4 -3,-5.5 -6.3,-6.4 -4.6,-1.2 -7,2.6 -6.6,5.5 0.3,3 2.3,3.9 3.2,5.5 0.9,1.6 1.4,2.7 3.1,3.4 1.2,0.5 1.7,1.2 1.3,2.2 -0.3,0.9 -1.6,1.1 -2.4,1.1 -1.8,0.1 -3,-0.4 -3.9,-1 -1,-0.7 -1.9,-1.6 -2.8,-3.2 -1.1,-1.7 -2.7,-2.5 -4.7,-2.5 -0.9,0 -1.8,0.2 -2.6,0.6 -3,1.6 -6.6,2.5 -10.5,2.5 l -4.4,0 c -2.1,-6.3 -3.3,-13.1 -3.3,-20.2 0,-34.8 28.2,-63.1 63.1,-63.1 34.8,0 63.1,28.2 63.1,63.1 0,12.7 -3.7,24.4 -10.1,34.3 z"
       id="path14"
       inkscape:connector-curvature="0" /></g><path
     d="m 39.6,20.225001 c 0,-1.45 -0.025,-2.5 -0.1,-3.475 l 2.375,0 0.1,2.05 0.075,0 c 0.525,-1.525 1.8,-2.3 2.95,-2.3 0.275,0 0.425,0 0.65,0.05 l 0,2.575 c -0.25,-0.05 -0.5,-0.075 -0.825,-0.075 -1.3,0 -2.2,0.825 -2.45,2.075 -0.05,0.25 -0.075,0.525 -0.075,0.825 l 0,5.6 -2.725,0 0.025,-7.325 z"
     id="path16"
     inkscape:connector-curvature="0"
     style="fill:#ffffff" /><path
     d="m 48.95,22.900001 c 0.075,1.95 1.6,2.825 3.35,2.825 1.25,0 2.15,-0.2 2.975,-0.5 l 0.4,1.875 c -0.925,0.4 -2.2,0.675 -3.775,0.675 -3.5,0 -5.575,-2.175 -5.575,-5.475 0,-2.975 1.8,-5.8 5.275,-5.8 3.525,0 4.65,2.9 4.65,5.25 0,0.5 -0.05,0.925 -0.1,1.175 l -7.2,-0.025 z m 4.75,-1.925 c 0,-1 -0.425,-2.625 -2.25,-2.625 -1.675,0 -2.375,1.525 -2.5,2.625 l 4.75,0 z"
     id="path18"
     inkscape:connector-curvature="0"
     style="fill:#ffffff" /><path
     d="m 65.325,22.875001 c 0,0.275 -0.025,0.55 -0.075,0.8 -0.275,1.175 -1.25,1.95 -2.35,1.95 -1.725,0 -2.7,-1.45 -2.7,-3.425 0,-2 0.975,-3.55 2.725,-3.55 1.225,0 2.1,0.875 2.35,1.925 0.05,0.225 0.05,0.5 0.05,0.725 l 0,1.575 z m 2.725,-10.275 -2.725,-0.775 0,6.1 -0.05,0 c -0.475,-0.8 -1.55,-1.4 -3.025,-1.4 -2.6,0 -4.85,2.15 -4.85,5.775 0,3.325 2.05,5.525 4.625,5.525 1.55,0 2.875,-0.75 3.5,-1.95 l 0.05,0 0.125,1.7 2.425,0 c -0.05,-0.725 -0.1,-1.925 -0.1,-3.025 l 0,-11.95 z"
     id="path20"
     inkscape:connector-curvature="0"
     style="fill:#ffffff" /><path
     d="m 75.275,16.500001 c -0.825,0 -1.55,0.225 -2.175,0.625 -0.65,0.375 -1.175,0.95 -1.475,1.55 l -0.05,0 0,-5.05 -1.075,-0.325 0,14.25 1.075,0 0,-6.625 c 0,-0.45 0.025,-0.75 0.15,-1.075 0.45,-1.35 1.725,-2.45 3.25,-2.45 2.225,0 2.975,1.775 2.975,3.725 l 0,6.425 1.075,0 0,-6.525 c 0,-4.025 -2.725,-4.525 -3.75,-4.525 z"
     id="path22"
     inkscape:connector-curvature="0"
     style="fill:#ffffff" /><path
     d="m 88.625,25.000001 c 0,0.85 0.025,1.75 0.15,2.575 l -0.975,0 -0.15,-1.55 -0.05,0 c -0.525,0.825 -1.725,1.8 -3.45,1.8 -2.175,0 -3.2,-1.525 -3.2,-2.975 0,-2.5 2.2,-4 6.6,-3.95 l 0,-0.3 c 0,-1.075 -0.2,-3.2 -2.775,-3.175 -0.95,0 -1.925,0.25 -2.725,0.8 l -0.35,-0.775 c 1,-0.675 2.2,-0.925 3.175,-0.925 3.125,0 3.725,2.35 3.725,4.275 l 0,4.2 z m -1.05,-3.225 c -2.35,-0.075 -5.475,0.3 -5.475,2.875 0,1.55 1.025,2.25 2.15,2.25 1.8,0 2.825,-1.125 3.2,-2.175 0.075,-0.225 0.1,-0.475 0.1,-0.65 l 0,-2.3 z"
     id="path24"
     inkscape:connector-curvature="0"
     style="fill:#ffffff" /><path
     d="m 92.9,14.350001 0,2.375 3.075,0 0,0.875 -3.075,0 0,7.025 c 0,1.375 0.425,2.225 1.6,2.225 0.55,0 0.95,-0.075 1.225,-0.175 l 0.125,0.825 c -0.35,0.15 -0.85,0.25 -1.5,0.25 -0.8,0 -1.45,-0.25 -1.875,-0.775 -0.5,-0.575 -0.65,-1.475 -0.65,-2.575 l 0,-6.85 -1.825,0 0,-0.875 1.825,0 0,-2 1.075,-0.325 z"
     id="path26"
     inkscape:connector-curvature="0"
     style="fill:#ffffff" /><g
     id="g28"
     transform="matrix(0.25,0,0,0.25,-30.6,-80.949999)"
     style="fill:#ffffff"><path
       d="m 511.7,431.7 0.6,0 0.9,1.4 0.6,0 -0.9,-1.4 c 0.5,-0.1 0.8,-0.3 0.8,-0.9 0,-0.6 -0.4,-0.9 -1.2,-0.9 l -1.2,0 0,3.3 0.5,0 0,-1.5 z m 0,-0.4 0,-1 0.7,0 c 0.3,0 0.7,0.1 0.7,0.5 0,0.5 -0.4,0.5 -0.8,0.5 l -0.6,0 z"
       id="path30"
       inkscape:connector-curvature="0"
       style="fill:#ffffff" /><path
       d="m 515.5,431.5 c 0,1.8 -1.4,3.2 -3.2,3.2 -1.8,0 -3.2,-1.4 -3.2,-3.2 0,-1.8 1.4,-3.2 3.2,-3.2 1.8,0 3.2,1.5 3.2,3.2 z m -3.2,-2.6 c -1.5,0 -2.6,1.2 -2.6,2.6 0,1.4 1.2,2.6 2.6,2.6 1.4,0 2.6,-1.2 2.6,-2.6 0,-1.4 -1.2,-2.6 -2.6,-2.6 z"
       id="path32"
       inkscape:connector-curvature="0"
       style="fill:#ffffff" /></g><path
     d="m 19.25,26.350001 c 0.075,0.075 0.225,0.35 0.05,0.675 -0.1,0.175 -0.2,0.3 -0.375,0.45 -0.225,0.175 -0.65,0.375 -1.25,0 -0.325,-0.2 -0.35,-0.275 -0.775,-0.225 -0.325,0.05 -0.45,-0.275 -0.325,-0.55 0.125,-0.275 0.575,-0.475 1.15,-0.15 0.25,0.15 0.675,0.475 1.025,0.2 0.15,-0.125 0.225,-0.2 0.45,-0.425 0,0 0.025,-0.025 0.025,-0.025 0,0.05 0.025,0.05 0.025,0.05 z"
     id="path34"
     inkscape:connector-curvature="0" /><path
     id="red"
     d="m 14.55,10.975001 c -1.825,0.125 -2,0.325 -2.35,0.7 -0.475,0.525 -1.125,-0.675 -1.125,-0.675 -0.375,-0.075 -0.85,-0.7 -0.6,-1.2749998 0.25,-0.575 0.7,-0.4 0.85,-0.225 0.175,0.225 0.55,0.5749998 1.025,0.5499998 0.475,-0.025 1.025,-0.1249998 1.8,-0.1249998 0.775,0 1.3,0.2999998 1.325,0.5499998 0.025,0.225 -0.05,0.425 -0.925,0.5 z m 1.925,-3.0249998 c 0,0 0,0 0,0 -0.025,0 -0.05,-0.025 -0.05,-0.05 0,-0.025 0,-0.025 0.025,-0.05 0.35,-0.175 0.875,-0.325 1.475,-0.4 0.175,-0.025 0.35,-0.025 0.525,-0.025 0.025,0 0.05,0 0.1,0 1,0.025 1.825,0.425 1.8,0.9 0,0.475 -0.85,0.85 -1.85,0.825 -0.325,0 -0.625,-0.05 -0.9,-0.125 -0.025,0 -0.05,-0.025 -0.05,-0.075 0,-0.025 0.025,-0.05 0.05,-0.075 0.625,-0.15 1.05,-0.375 1.025,-0.6 -0.05,-0.3 -0.875,-0.45 -1.85,-0.375 -0.1,0.025 -0.2,0.05 -0.3,0.05 z m 8.2,7.0749998 c -0.15,0.525 -0.375,1.2 -1.375,1.7 -0.15,0.075 -0.2,-0.05 -0.125,-0.15 0.375,-0.625 0.45,-0.8 0.55,-1.05 0.15,-0.375 0.225,-0.875 -0.075,-1.975 -0.6,-2.125 -1.825,-4.9999998 -2.725,-5.9249998 -0.875,-0.9 -2.45,-1.15 -3.875,-0.775 -0.525,0.125 -1.55,0.675 -3.45,0.25 -3.3,-0.75 -3.775,0.9 -3.975,1.625 -0.2,0.725 -0.65,2.7499998 -0.65,2.7499998 -0.15,0.825 -0.35,2.275 4.75,3.25 2.375,0.45 2.5,1.075 2.6,1.5 0.2,0.8 0.5,1.25 0.825,1.475 0.35,0.225 0,0.425 -0.375,0.45 -1.025,0.1 -4.75,-0.975 -6.975,-2.225 -1.8,-1.1 -1.85,-2.1 -1.425,-2.95 -2.725,-0.3 -4.8,0.25 -5.175,1.55 -0.65,2.225 4.9,6.025 11.175,7.925 6.6,2 13.4,0.6 14.15,-3.55 0.425,-1.875 -1.15,-3.275 -3.85,-3.875 z"
     inkscape:connector-curvature="0"
     style="fill:#cc0000" /><text
     xml:space="preserve"
     style="font-style:normal;font-weight:normal;font-size:15.25825691px;line-height:125%;font-family:sans-serif;letter-spacing:0px;word-spacing:0px;fill:#ffffff;fill-opacity:1;stroke:none;stroke-width:1px;stroke-linecap:butt;stroke-linejoin:miter;stroke-opacity:1;"
     x="90.77272"
     y="29.280407"
     id="text3340"
     sodipodi:linespacing="125%"
     transform="scale(1.0921356,0.91563722)"><tspan
       sodipodi:role="line"
       id="tspan3450"
       style="font-style:normal;font-variant:normal;font-weight:300;font-stretch:normal;font-size:21.25px;line-height:125%;font-family:Overpass;-inkscape-font-specification:'Overpass, Light';text-align:start;writing-mode:lr;text-anchor:start;fill:#ffffff"
       x="90.77272"
       y="29.280407"><tspan
   style="-inkscape-font-specification:'Overpass, Ultra-Light';font-family:Overpass;font-weight:200;font-style:normal;font-stretch:normal;font-variant:normal;font-size:21.25px;text-anchor:start;text-align:start;writing-mode:lr;line-height:125%"
   id="tspan3452">|</tspan>north american public sector</tspan></text>
</svg>